<svg xmlns="http://www.w3.org/2000/svg" xmlns:xlink="http://www.w3.org/1999/xlink" width="780" zoomAndPan="magnify" viewBox="0 0 585 162.749997" height="217" preserveAspectRatio="xMidYMid meet" version="1.2"><defs/><g id="60ecb54a2d"><path style=" stroke:none;fill-rule:nonzero;fill:#ffffff;fill-opacity:1;" d="M 73.824219 56.625 C 75.550781 59.6875 77.0625 62.375 78.359375 64.691406 C 79.65625 67.007812 80.792969 69.070312 81.773438 70.875 C 82.757812 72.683594 83.621094 74.332031 84.367188 75.824219 C 85.113281 77.316406 85.839844 78.769531 86.546875 80.179688 C 87.175781 78.769531 87.863281 77.335938 88.609375 75.882812 C 89.355469 74.429688 90.214844 72.78125 91.199219 70.933594 C 92.179688 69.089844 93.316406 67.027344 94.613281 64.75 C 95.910156 62.472656 97.421875 59.804688 99.148438 56.742188 L 111.753906 34.363281 C 113.164062 31.851562 114.953125 29.828125 117.113281 28.296875 C 119.269531 26.765625 121.960938 26 125.179688 26 C 128.242188 26 131.011719 26.882812 133.484375 28.648438 C 135.957031 30.417969 137.742188 33.144531 138.84375 36.835938 L 143.671875 53.632812 C 143.617188 53.710938 143.566406 53.792969 143.515625 53.867188 C 138.664062 61.113281 132.566406 68.015625 125.878906 74.375 C 125.125 71.628906 124.460938 69.128906 123.882812 66.871094 C 123.019531 63.496094 122.273438 60.195312 121.648438 56.976562 C 120.3125 59.726562 118.820312 62.769531 117.171875 66.105469 C 115.523438 69.445312 113.363281 73.664062 110.695312 78.769531 L 103.277344 92.613281 C 102.597656 93.078125 101.921875 93.539062 101.246094 93.992188 C 94.648438 98.429688 87.394531 102.738281 79.816406 106.523438 C 79.335938 106.339844 78.871094 106.117188 78.417969 105.859375 C 77.320312 105.230469 76.238281 104.347656 75.179688 103.210938 C 74.121094 102.070312 73.078125 100.519531 72.058594 98.554688 L 61.457031 78.648438 C 60.042969 75.980469 58.789062 73.585938 57.6875 71.464844 C 56.589844 69.34375 55.589844 67.441406 54.683594 65.753906 C 53.78125 64.0625 52.996094 62.511719 52.328125 61.101562 C 51.664062 59.6875 51.015625 58.3125 50.386719 56.976562 C 49.757812 60.117188 49.011719 63.398438 48.148438 66.8125 C 47.285156 70.226562 46.261719 74.175781 45.085938 78.648438 L 37.664062 106.09375 L 13.753906 106.09375 L 20.503906 83.160156 C 12.628906 95.726562 10.257812 107.023438 15.191406 114.367188 C 25.640625 129.914062 64.882812 121.839844 102.824219 96.339844 C 140.765625 70.839844 163.0625 37.554688 152.613281 22.007812 C 142.164062 6.464844 102.925781 14.535156 64.980469 40.035156 C 64.847656 40.125 64.71875 40.214844 64.585938 40.304688 Z M 23.421875 73.234375 L 34.132812 36.835938 C 35.230469 33.144531 37.039062 30.417969 39.550781 28.648438 C 42.0625 26.882812 44.851562 26 47.914062 26 C 51.054688 26 53.703125 26.746094 55.863281 28.238281 C 58.023438 29.730469 59.808594 31.769531 61.222656 34.363281 L 63.421875 38.246094 C 63.503906 38.191406 63.582031 38.132812 63.667969 38.078125 C 109.394531 7.34375 157.480469 -1.207031 171.050781 18.980469 C 184.617188 39.167969 158.535156 80.464844 112.808594 111.195312 C 67.078125 141.929688 18.992188 150.480469 5.421875 130.296875 C -3.347656 117.242188 4.457031 95.371094 23.421875 73.234375 Z M 151.765625 81.800781 L 158.75 106.09375 L 134.484375 106.09375 L 132.78125 99.792969 C 139.464844 94.242188 145.910156 88.207031 151.765625 81.800781 Z M 151.765625 81.800781 "/><g style="fill:#ffffff;fill-opacity:1;"><g transform="translate(162.577308, 105.839415)"><path style="stroke:none" d="M 44.0625 -40.109375 L 44.0625 0 L 31.78125 0 L 31.78125 -5.46875 C 30.53125 -3.6875 28.835938 -2.253906 26.703125 -1.171875 C 24.578125 -0.0976562 22.21875 0.4375 19.625 0.4375 C 16.5625 0.4375 13.851562 -0.242188 11.5 -1.609375 C 9.15625 -2.984375 7.332031 -4.960938 6.03125 -7.546875 C 4.738281 -10.140625 4.09375 -13.179688 4.09375 -16.671875 L 4.09375 -40.109375 L 16.3125 -40.109375 L 16.3125 -18.328125 C 16.3125 -15.648438 17.003906 -13.566406 18.390625 -12.078125 C 19.785156 -10.585938 21.660156 -9.84375 24.015625 -9.84375 C 26.410156 -9.84375 28.300781 -10.585938 29.6875 -12.078125 C 31.082031 -13.566406 31.78125 -15.648438 31.78125 -18.328125 L 31.78125 -40.109375 Z M 44.0625 -40.109375 "/></g></g><g style="fill:#ffffff;fill-opacity:1;"><g transform="translate(211.030849, 105.839415)"><path style="stroke:none" d="M 26.8125 -10.421875 L 26.8125 0 L 20.5625 0 C 16.101562 0 12.625 -1.085938 10.125 -3.265625 C 7.632812 -5.453125 6.390625 -9.015625 6.390625 -13.953125 L 6.390625 -29.90625 L 1.515625 -29.90625 L 1.515625 -40.109375 L 6.390625 -40.109375 L 6.390625 -49.890625 L 18.6875 -49.890625 L 18.6875 -40.109375 L 26.75 -40.109375 L 26.75 -29.90625 L 18.6875 -29.90625 L 18.6875 -13.796875 C 18.6875 -12.597656 18.972656 -11.734375 19.546875 -11.203125 C 20.128906 -10.679688 21.09375 -10.421875 22.4375 -10.421875 Z M 26.8125 -10.421875 "/></g></g><g style="fill:#ffffff;fill-opacity:1;"><g transform="translate(240.218, 105.839415)"><path style="stroke:none" d="M 44.0625 -40.109375 L 44.0625 0 L 31.78125 0 L 31.78125 -5.46875 C 30.53125 -3.6875 28.835938 -2.253906 26.703125 -1.171875 C 24.578125 -0.0976562 22.21875 0.4375 19.625 0.4375 C 16.5625 0.4375 13.851562 -0.242188 11.5 -1.609375 C 9.15625 -2.984375 7.332031 -4.960938 6.03125 -7.546875 C 4.738281 -10.140625 4.09375 -13.179688 4.09375 -16.671875 L 4.09375 -40.109375 L 16.3125 -40.109375 L 16.3125 -18.328125 C 16.3125 -15.648438 17.003906 -13.566406 18.390625 -12.078125 C 19.785156 -10.585938 21.660156 -9.84375 24.015625 -9.84375 C 26.410156 -9.84375 28.300781 -10.585938 29.6875 -12.078125 C 31.082031 -13.566406 31.78125 -15.648438 31.78125 -18.328125 L 31.78125 -40.109375 Z M 44.0625 -40.109375 "/></g></g><g style="fill:#ffffff;fill-opacity:1;"><g transform="translate(288.671541, 105.839415)"><path style="stroke:none" d="M 2.015625 -20.125 C 2.015625 -24.25 2.789062 -27.867188 4.34375 -30.984375 C 5.90625 -34.097656 8.023438 -36.492188 10.703125 -38.171875 C 13.390625 -39.847656 16.390625 -40.6875 19.703125 -40.6875 C 22.523438 -40.6875 25.003906 -40.109375 27.140625 -38.953125 C 29.273438 -37.804688 30.914062 -36.300781 32.0625 -34.4375 L 32.0625 -40.109375 L 44.359375 -40.109375 L 44.359375 0 L 32.0625 0 L 32.0625 -5.671875 C 30.863281 -3.804688 29.195312 -2.296875 27.0625 -1.140625 C 24.9375 0.00390625 22.457031 0.578125 19.625 0.578125 C 16.363281 0.578125 13.390625 -0.269531 10.703125 -1.96875 C 8.023438 -3.675781 5.90625 -6.097656 4.34375 -9.234375 C 2.789062 -12.378906 2.015625 -16.007812 2.015625 -20.125 Z M 32.0625 -20.0625 C 32.0625 -23.125 31.207031 -25.539062 29.5 -27.3125 C 27.800781 -29.09375 25.734375 -29.984375 23.296875 -29.984375 C 20.847656 -29.984375 18.769531 -29.109375 17.0625 -27.359375 C 15.363281 -25.609375 14.515625 -23.195312 14.515625 -20.125 C 14.515625 -17.0625 15.363281 -14.628906 17.0625 -12.828125 C 18.769531 -11.035156 20.847656 -10.140625 23.296875 -10.140625 C 25.734375 -10.140625 27.800781 -11.023438 29.5 -12.796875 C 31.207031 -14.566406 32.0625 -16.988281 32.0625 -20.0625 Z M 32.0625 -20.0625 "/></g></g><g style="fill:#ffffff;fill-opacity:1;"><g transform="translate(337.484537, 105.839415)"><path style="stroke:none" d="M 16.75 -53.203125 L 16.75 0 L 4.453125 0 L 4.453125 -53.203125 Z M 16.75 -53.203125 "/></g></g><g style="fill:#ffffff;fill-opacity:1;"><g transform="translate(358.691953, 105.839415)"><path style="stroke:none" d="M 35.015625 -25.875 C 37.929688 -25.257812 40.273438 -23.8125 42.046875 -21.53125 C 43.828125 -19.25 44.71875 -16.648438 44.71875 -13.734375 C 44.71875 -9.515625 43.242188 -6.171875 40.296875 -3.703125 C 37.347656 -1.234375 33.238281 0 27.96875 0 L 4.453125 0 L 4.453125 -50.46875 L 27.171875 -50.46875 C 32.296875 -50.46875 36.304688 -49.289062 39.203125 -46.9375 C 42.109375 -44.59375 43.5625 -41.410156 43.5625 -37.390625 C 43.5625 -34.410156 42.78125 -31.9375 41.21875 -29.96875 C 39.664062 -28.007812 37.597656 -26.644531 35.015625 -25.875 Z M 16.75 -30.046875 L 24.796875 -30.046875 C 26.816406 -30.046875 28.363281 -30.488281 29.4375 -31.375 C 30.519531 -32.257812 31.0625 -33.566406 31.0625 -35.296875 C 31.0625 -37.023438 30.519531 -38.34375 29.4375 -39.25 C 28.363281 -40.164062 26.816406 -40.625 24.796875 -40.625 L 16.75 -40.625 Z M 25.8125 -9.921875 C 27.875 -9.921875 29.46875 -10.382812 30.59375 -11.3125 C 31.71875 -12.25 32.28125 -13.609375 32.28125 -15.390625 C 32.28125 -17.160156 31.691406 -18.546875 30.515625 -19.546875 C 29.335938 -20.554688 27.722656 -21.0625 25.671875 -21.0625 L 16.75 -21.0625 L 16.75 -9.921875 Z M 25.8125 -9.921875 "/></g></g><g style="fill:#ffffff;fill-opacity:1;"><g transform="translate(406.06716, 105.839415)"><path style="stroke:none" d="M 22.71875 0.578125 C 18.789062 0.578125 15.253906 -0.257812 12.109375 -1.9375 C 8.972656 -3.613281 6.503906 -6.007812 4.703125 -9.125 C 2.910156 -12.238281 2.015625 -15.882812 2.015625 -20.0625 C 2.015625 -24.175781 2.925781 -27.800781 4.75 -30.9375 C 6.570312 -34.082031 9.0625 -36.492188 12.21875 -38.171875 C 15.382812 -39.847656 18.929688 -40.6875 22.859375 -40.6875 C 26.785156 -40.6875 30.332031 -39.847656 33.5 -38.171875 C 36.664062 -36.492188 39.15625 -34.082031 40.96875 -30.9375 C 42.789062 -27.800781 43.703125 -24.175781 43.703125 -20.0625 C 43.703125 -15.9375 42.78125 -12.300781 40.9375 -9.15625 C 39.09375 -6.019531 36.578125 -3.613281 33.390625 -1.9375 C 30.203125 -0.257812 26.644531 0.578125 22.71875 0.578125 Z M 22.71875 -10.0625 C 25.0625 -10.0625 27.0625 -10.921875 28.71875 -12.640625 C 30.375 -14.367188 31.203125 -16.84375 31.203125 -20.0625 C 31.203125 -23.269531 30.398438 -25.734375 28.796875 -27.453125 C 27.191406 -29.179688 25.210938 -30.046875 22.859375 -30.046875 C 20.460938 -30.046875 18.472656 -29.195312 16.890625 -27.5 C 15.304688 -25.800781 14.515625 -23.320312 14.515625 -20.0625 C 14.515625 -16.84375 15.289062 -14.367188 16.84375 -12.640625 C 18.40625 -10.921875 20.363281 -10.0625 22.71875 -10.0625 Z M 22.71875 -10.0625 "/></g></g><g style="fill:#ffffff;fill-opacity:1;"><g transform="translate(451.860798, 105.839415)"><path style="stroke:none" d="M 22.71875 0.578125 C 18.789062 0.578125 15.253906 -0.257812 12.109375 -1.9375 C 8.972656 -3.613281 6.503906 -6.007812 4.703125 -9.125 C 2.910156 -12.238281 2.015625 -15.882812 2.015625 -20.0625 C 2.015625 -24.175781 2.925781 -27.800781 4.75 -30.9375 C 6.570312 -34.082031 9.0625 -36.492188 12.21875 -38.171875 C 15.382812 -39.847656 18.929688 -40.6875 22.859375 -40.6875 C 26.785156 -40.6875 30.332031 -39.847656 33.5 -38.171875 C 36.664062 -36.492188 39.15625 -34.082031 40.96875 -30.9375 C 42.789062 -27.800781 43.703125 -24.175781 43.703125 -20.0625 C 43.703125 -15.9375 42.78125 -12.300781 40.9375 -9.15625 C 39.09375 -6.019531 36.578125 -3.613281 33.390625 -1.9375 C 30.203125 -0.257812 26.644531 0.578125 22.71875 0.578125 Z M 22.71875 -10.0625 C 25.0625 -10.0625 27.0625 -10.921875 28.71875 -12.640625 C 30.375 -14.367188 31.203125 -16.84375 31.203125 -20.0625 C 31.203125 -23.269531 30.398438 -25.734375 28.796875 -27.453125 C 27.191406 -29.179688 25.210938 -30.046875 22.859375 -30.046875 C 20.460938 -30.046875 18.472656 -29.195312 16.890625 -27.5 C 15.304688 -25.800781 14.515625 -23.320312 14.515625 -20.0625 C 14.515625 -16.84375 15.289062 -14.367188 16.84375 -12.640625 C 18.40625 -10.921875 20.363281 -10.0625 22.71875 -10.0625 Z M 22.71875 -10.0625 "/></g></g><g style="fill:#ffffff;fill-opacity:1;"><g transform="translate(497.654435, 105.839415)"><path style="stroke:none" d="M 28.96875 0 L 16.75 -16.828125 L 16.75 0 L 4.453125 0 L 4.453125 -53.203125 L 16.75 -53.203125 L 16.75 -23.796875 L 28.90625 -40.109375 L 44.0625 -40.109375 L 27.390625 -19.984375 L 44.21875 0 Z M 28.96875 0 "/></g></g></g></svg>